<mxfile host="app.diagrams.net" modified="2022-03-10T19:03:36.969Z" agent="5.0 (Windows NT 10.0; Win64; x64) AppleWebKit/537.36 (KHTML, like Gecko) Chrome/99.0.4844.51 Safari/537.36" etag="rFhw2aN1UFmNiPP33hMO" version="17.1.1" type="github">
  <diagram id="FVTB6eCvjAsudvaujAqm" name="Page-1">
    <mxGraphModel dx="1283" dy="687" grid="1" gridSize="10" guides="1" tooltips="1" connect="1" arrows="1" fold="1" page="1" pageScale="1" pageWidth="1100" pageHeight="850" math="0" shadow="0">
      <root>
        <mxCell id="0" />
        <mxCell id="1" parent="0" />
        <mxCell id="izwD1ermn6o2qZZVHTIV-5" style="edgeStyle=orthogonalEdgeStyle;rounded=0;orthogonalLoop=1;jettySize=auto;html=1;entryX=0;entryY=0.5;entryDx=0;entryDy=0;entryPerimeter=0;" parent="1" source="izwD1ermn6o2qZZVHTIV-1" target="izwD1ermn6o2qZZVHTIV-3" edge="1">
          <mxGeometry relative="1" as="geometry" />
        </mxCell>
        <mxCell id="izwD1ermn6o2qZZVHTIV-1" value="Linux Ops Station&lt;br&gt;&lt;br&gt;10.50.23.138 / 192.168.65.20&lt;br&gt;student / password" style="verticalLabelPosition=bottom;html=1;verticalAlign=top;align=center;strokeColor=none;fillColor=#00BEF2;shape=mxgraph.azure.computer;pointerEvents=1;" parent="1" vertex="1">
          <mxGeometry x="61" y="200" width="50" height="45" as="geometry" />
        </mxCell>
        <mxCell id="izwD1ermn6o2qZZVHTIV-4" style="edgeStyle=orthogonalEdgeStyle;rounded=0;orthogonalLoop=1;jettySize=auto;html=1;entryX=0;entryY=0.5;entryDx=0;entryDy=0;entryPerimeter=0;" parent="1" source="izwD1ermn6o2qZZVHTIV-2" target="izwD1ermn6o2qZZVHTIV-3" edge="1">
          <mxGeometry relative="1" as="geometry" />
        </mxCell>
        <mxCell id="izwD1ermn6o2qZZVHTIV-2" value="Windows Ops Station&lt;br&gt;&lt;br&gt;10.50.29.138 / 192.168.65.10&lt;br&gt;student / password" style="verticalLabelPosition=bottom;html=1;verticalAlign=top;align=center;strokeColor=none;fillColor=#00BEF2;shape=mxgraph.azure.computer;pointerEvents=1;" parent="1" vertex="1">
          <mxGeometry x="61" y="40" width="50" height="45" as="geometry" />
        </mxCell>
        <mxCell id="izwD1ermn6o2qZZVHTIV-11" style="edgeStyle=orthogonalEdgeStyle;rounded=0;orthogonalLoop=1;jettySize=auto;html=1;entryX=0;entryY=0.5;entryDx=0;entryDy=0;" parent="1" source="izwD1ermn6o2qZZVHTIV-3" target="izwD1ermn6o2qZZVHTIV-7" edge="1">
          <mxGeometry relative="1" as="geometry" />
        </mxCell>
        <mxCell id="izwD1ermn6o2qZZVHTIV-21" style="edgeStyle=orthogonalEdgeStyle;rounded=0;orthogonalLoop=1;jettySize=auto;html=1;entryX=0;entryY=0.5;entryDx=0;entryDy=0;" parent="1" source="izwD1ermn6o2qZZVHTIV-3" target="izwD1ermn6o2qZZVHTIV-17" edge="1">
          <mxGeometry relative="1" as="geometry">
            <Array as="points">
              <mxPoint x="400" y="143" />
              <mxPoint x="400" y="400" />
            </Array>
          </mxGeometry>
        </mxCell>
        <mxCell id="a8j4Nl5_mCWLMUD-GGag-40" style="edgeStyle=orthogonalEdgeStyle;rounded=0;orthogonalLoop=1;jettySize=auto;html=1;exitX=1;exitY=0.5;exitDx=0;exitDy=0;exitPerimeter=0;entryX=0;entryY=0.5;entryDx=0;entryDy=0;" parent="1" source="izwD1ermn6o2qZZVHTIV-3" target="a8j4Nl5_mCWLMUD-GGag-39" edge="1">
          <mxGeometry relative="1" as="geometry">
            <Array as="points">
              <mxPoint x="400" y="143" />
              <mxPoint x="400" y="640" />
            </Array>
          </mxGeometry>
        </mxCell>
        <mxCell id="izwD1ermn6o2qZZVHTIV-3" value="Grey Host (lin)&lt;br&gt;&lt;br&gt;10.50.23.144&lt;br&gt;student / RuidmbishkNZuLq" style="verticalLabelPosition=bottom;html=1;verticalAlign=top;align=center;strokeColor=#666666;fillColor=#f5f5f5;shape=mxgraph.azure.computer;pointerEvents=1;fontColor=#333333;" parent="1" vertex="1">
          <mxGeometry x="281" y="120" width="50" height="45" as="geometry" />
        </mxCell>
        <mxCell id="izwD1ermn6o2qZZVHTIV-6" value="" style="verticalLabelPosition=bottom;html=1;verticalAlign=top;align=center;strokeColor=#b85450;fillColor=#f8cecc;shape=mxgraph.azure.computer;pointerEvents=1;" parent="1" vertex="1">
          <mxGeometry x="556" y="200" width="50" height="45" as="geometry" />
        </mxCell>
        <mxCell id="izwD1ermn6o2qZZVHTIV-22" style="edgeStyle=orthogonalEdgeStyle;rounded=0;orthogonalLoop=1;jettySize=auto;html=1;entryX=0.5;entryY=0;entryDx=0;entryDy=0;entryPerimeter=0;" parent="1" source="izwD1ermn6o2qZZVHTIV-7" target="izwD1ermn6o2qZZVHTIV-6" edge="1">
          <mxGeometry relative="1" as="geometry" />
        </mxCell>
        <mxCell id="izwD1ermn6o2qZZVHTIV-23" style="edgeStyle=orthogonalEdgeStyle;rounded=0;orthogonalLoop=1;jettySize=auto;html=1;" parent="1" source="izwD1ermn6o2qZZVHTIV-7" target="izwD1ermn6o2qZZVHTIV-10" edge="1">
          <mxGeometry relative="1" as="geometry" />
        </mxCell>
        <mxCell id="izwD1ermn6o2qZZVHTIV-24" style="edgeStyle=orthogonalEdgeStyle;rounded=0;orthogonalLoop=1;jettySize=auto;html=1;" parent="1" source="izwD1ermn6o2qZZVHTIV-7" target="izwD1ermn6o2qZZVHTIV-9" edge="1">
          <mxGeometry relative="1" as="geometry" />
        </mxCell>
        <mxCell id="izwD1ermn6o2qZZVHTIV-25" style="edgeStyle=orthogonalEdgeStyle;rounded=0;orthogonalLoop=1;jettySize=auto;html=1;" parent="1" source="izwD1ermn6o2qZZVHTIV-7" target="izwD1ermn6o2qZZVHTIV-8" edge="1">
          <mxGeometry relative="1" as="geometry" />
        </mxCell>
        <mxCell id="a8j4Nl5_mCWLMUD-GGag-21" style="edgeStyle=orthogonalEdgeStyle;rounded=0;orthogonalLoop=1;jettySize=auto;html=1;exitX=1;exitY=0.5;exitDx=0;exitDy=0;entryX=0.5;entryY=0;entryDx=0;entryDy=0;entryPerimeter=0;" parent="1" source="izwD1ermn6o2qZZVHTIV-7" target="a8j4Nl5_mCWLMUD-GGag-15" edge="1">
          <mxGeometry relative="1" as="geometry" />
        </mxCell>
        <mxCell id="a8j4Nl5_mCWLMUD-GGag-22" style="edgeStyle=orthogonalEdgeStyle;rounded=0;orthogonalLoop=1;jettySize=auto;html=1;exitX=1;exitY=0.5;exitDx=0;exitDy=0;entryX=0.5;entryY=0;entryDx=0;entryDy=0;entryPerimeter=0;dashed=1;" parent="1" source="izwD1ermn6o2qZZVHTIV-7" target="a8j4Nl5_mCWLMUD-GGag-17" edge="1">
          <mxGeometry relative="1" as="geometry" />
        </mxCell>
        <mxCell id="a8j4Nl5_mCWLMUD-GGag-32" style="edgeStyle=orthogonalEdgeStyle;rounded=0;orthogonalLoop=1;jettySize=auto;html=1;exitX=1;exitY=0.5;exitDx=0;exitDy=0;entryX=0.5;entryY=0;entryDx=0;entryDy=0;entryPerimeter=0;" parent="1" source="izwD1ermn6o2qZZVHTIV-7" target="a8j4Nl5_mCWLMUD-GGag-27" edge="1">
          <mxGeometry relative="1" as="geometry" />
        </mxCell>
        <mxCell id="a8j4Nl5_mCWLMUD-GGag-33" style="edgeStyle=orthogonalEdgeStyle;rounded=0;orthogonalLoop=1;jettySize=auto;html=1;exitX=1;exitY=0.5;exitDx=0;exitDy=0;entryX=0.5;entryY=0;entryDx=0;entryDy=0;entryPerimeter=0;" parent="1" source="izwD1ermn6o2qZZVHTIV-7" target="a8j4Nl5_mCWLMUD-GGag-29" edge="1">
          <mxGeometry relative="1" as="geometry" />
        </mxCell>
        <mxCell id="izwD1ermn6o2qZZVHTIV-7" value="" style="image;html=1;image=img/lib/clip_art/computers/Network_128x128.png;fillColor=#f8cecc;strokeColor=#b85450;" parent="1" vertex="1">
          <mxGeometry x="466" y="102.5" width="80" height="80" as="geometry" />
        </mxCell>
        <mxCell id="izwD1ermn6o2qZZVHTIV-8" value="" style="verticalLabelPosition=bottom;html=1;verticalAlign=top;align=center;strokeColor=#b85450;fillColor=#f8cecc;shape=mxgraph.azure.computer;pointerEvents=1;" parent="1" vertex="1">
          <mxGeometry x="885" y="200" width="50" height="45" as="geometry" />
        </mxCell>
        <mxCell id="izwD1ermn6o2qZZVHTIV-9" value="" style="verticalLabelPosition=bottom;html=1;verticalAlign=top;align=center;strokeColor=#b85450;fillColor=#f8cecc;shape=mxgraph.azure.computer;pointerEvents=1;" parent="1" vertex="1">
          <mxGeometry x="775" y="200" width="50" height="45" as="geometry" />
        </mxCell>
        <mxCell id="izwD1ermn6o2qZZVHTIV-10" value="" style="verticalLabelPosition=bottom;html=1;verticalAlign=top;align=center;strokeColor=#b85450;fillColor=#f8cecc;shape=mxgraph.azure.computer;pointerEvents=1;" parent="1" vertex="1">
          <mxGeometry x="666" y="200" width="50" height="45" as="geometry" />
        </mxCell>
        <mxCell id="izwD1ermn6o2qZZVHTIV-16" value="" style="verticalLabelPosition=bottom;html=1;verticalAlign=top;align=center;strokeColor=#b85450;fillColor=#f8cecc;shape=mxgraph.azure.computer;pointerEvents=1;" parent="1" vertex="1">
          <mxGeometry x="556" y="457.5" width="50" height="45" as="geometry" />
        </mxCell>
        <mxCell id="izwD1ermn6o2qZZVHTIV-26" style="edgeStyle=orthogonalEdgeStyle;rounded=0;orthogonalLoop=1;jettySize=auto;html=1;" parent="1" source="izwD1ermn6o2qZZVHTIV-17" target="izwD1ermn6o2qZZVHTIV-16" edge="1">
          <mxGeometry relative="1" as="geometry" />
        </mxCell>
        <mxCell id="izwD1ermn6o2qZZVHTIV-27" style="edgeStyle=orthogonalEdgeStyle;rounded=0;orthogonalLoop=1;jettySize=auto;html=1;" parent="1" source="izwD1ermn6o2qZZVHTIV-17" target="izwD1ermn6o2qZZVHTIV-20" edge="1">
          <mxGeometry relative="1" as="geometry" />
        </mxCell>
        <mxCell id="izwD1ermn6o2qZZVHTIV-29" style="edgeStyle=orthogonalEdgeStyle;rounded=0;orthogonalLoop=1;jettySize=auto;html=1;entryX=0.5;entryY=0;entryDx=0;entryDy=0;entryPerimeter=0;" parent="1" source="izwD1ermn6o2qZZVHTIV-17" target="izwD1ermn6o2qZZVHTIV-19" edge="1">
          <mxGeometry relative="1" as="geometry" />
        </mxCell>
        <mxCell id="izwD1ermn6o2qZZVHTIV-30" style="edgeStyle=orthogonalEdgeStyle;rounded=0;orthogonalLoop=1;jettySize=auto;html=1;entryX=0.5;entryY=0;entryDx=0;entryDy=0;entryPerimeter=0;" parent="1" source="izwD1ermn6o2qZZVHTIV-17" target="izwD1ermn6o2qZZVHTIV-18" edge="1">
          <mxGeometry relative="1" as="geometry" />
        </mxCell>
        <mxCell id="izwD1ermn6o2qZZVHTIV-17" value="" style="image;html=1;image=img/lib/clip_art/computers/Network_128x128.png;fillColor=#f8cecc;strokeColor=#b85450;" parent="1" vertex="1">
          <mxGeometry x="466" y="360" width="80" height="80" as="geometry" />
        </mxCell>
        <mxCell id="izwD1ermn6o2qZZVHTIV-18" value="" style="verticalLabelPosition=bottom;html=1;verticalAlign=top;align=center;strokeColor=#b85450;fillColor=#f8cecc;shape=mxgraph.azure.computer;pointerEvents=1;" parent="1" vertex="1">
          <mxGeometry x="910" y="457.5" width="50" height="45" as="geometry" />
        </mxCell>
        <mxCell id="izwD1ermn6o2qZZVHTIV-19" value="" style="verticalLabelPosition=bottom;html=1;verticalAlign=top;align=center;strokeColor=#b85450;fillColor=#f8cecc;shape=mxgraph.azure.computer;pointerEvents=1;" parent="1" vertex="1">
          <mxGeometry x="775" y="457.5" width="50" height="45" as="geometry" />
        </mxCell>
        <mxCell id="izwD1ermn6o2qZZVHTIV-20" value="" style="verticalLabelPosition=bottom;html=1;verticalAlign=top;align=center;strokeColor=#b85450;fillColor=#f8cecc;shape=mxgraph.azure.computer;pointerEvents=1;" parent="1" vertex="1">
          <mxGeometry x="666" y="457.5" width="50" height="45" as="geometry" />
        </mxCell>
        <mxCell id="a8j4Nl5_mCWLMUD-GGag-2" value="192.168.28.100&lt;br&gt;Ports: 2222" style="text;html=1;align=center;verticalAlign=middle;resizable=0;points=[];autosize=1;strokeColor=none;fillColor=none;" parent="1" vertex="1">
          <mxGeometry x="860" y="260" width="100" height="30" as="geometry" />
        </mxCell>
        <mxCell id="a8j4Nl5_mCWLMUD-GGag-3" value="192.168.28.96/27" style="text;html=1;align=center;verticalAlign=middle;resizable=0;points=[];autosize=1;strokeColor=none;fillColor=none;" parent="1" vertex="1">
          <mxGeometry x="517" y="65" width="110" height="20" as="geometry" />
        </mxCell>
        <mxCell id="a8j4Nl5_mCWLMUD-GGag-4" value="192.168.28.97&lt;br&gt;Ports: None" style="text;html=1;align=center;verticalAlign=middle;resizable=0;points=[];autosize=1;strokeColor=none;fillColor=none;" parent="1" vertex="1">
          <mxGeometry x="536" y="260" width="90" height="30" as="geometry" />
        </mxCell>
        <mxCell id="a8j4Nl5_mCWLMUD-GGag-5" value="192.168.28.98&lt;br&gt;Ports: 53" style="text;html=1;align=center;verticalAlign=middle;resizable=0;points=[];autosize=1;strokeColor=none;fillColor=none;" parent="1" vertex="1">
          <mxGeometry x="646" y="260" width="90" height="30" as="geometry" />
        </mxCell>
        <mxCell id="a8j4Nl5_mCWLMUD-GGag-7" value="192.168.28.99&lt;br&gt;Ports: 53" style="text;html=1;align=center;verticalAlign=middle;resizable=0;points=[];autosize=1;strokeColor=none;fillColor=none;" parent="1" vertex="1">
          <mxGeometry x="755" y="260" width="90" height="30" as="geometry" />
        </mxCell>
        <mxCell id="a8j4Nl5_mCWLMUD-GGag-8" value="192.168.28.105&lt;br&gt;Ports: 21, 23, 2222" style="text;html=1;align=center;verticalAlign=middle;resizable=0;points=[];autosize=1;strokeColor=none;fillColor=none;" parent="1" vertex="1">
          <mxGeometry x="1070" y="260" width="120" height="30" as="geometry" />
        </mxCell>
        <mxCell id="a8j4Nl5_mCWLMUD-GGag-15" value="" style="verticalLabelPosition=bottom;html=1;verticalAlign=top;align=center;strokeColor=#b85450;fillColor=#f8cecc;shape=mxgraph.azure.computer;pointerEvents=1;" parent="1" vertex="1">
          <mxGeometry x="995" y="200" width="50" height="45" as="geometry" />
        </mxCell>
        <mxCell id="a8j4Nl5_mCWLMUD-GGag-16" value="192.168.28.101&lt;br&gt;Ports: 53" style="text;html=1;align=center;verticalAlign=middle;resizable=0;points=[];autosize=1;strokeColor=none;fillColor=none;" parent="1" vertex="1">
          <mxGeometry x="970" y="260" width="100" height="30" as="geometry" />
        </mxCell>
        <mxCell id="a8j4Nl5_mCWLMUD-GGag-17" value="" style="verticalLabelPosition=bottom;html=1;verticalAlign=top;align=center;strokeColor=#b85450;fillColor=#f8cecc;shape=mxgraph.azure.computer;pointerEvents=1;" parent="1" vertex="1">
          <mxGeometry x="1105" y="200" width="50" height="45" as="geometry" />
        </mxCell>
        <mxCell id="a8j4Nl5_mCWLMUD-GGag-27" value="" style="verticalLabelPosition=bottom;html=1;verticalAlign=top;align=center;strokeColor=#b85450;fillColor=#f8cecc;shape=mxgraph.azure.computer;pointerEvents=1;" parent="1" vertex="1">
          <mxGeometry x="1215" y="200" width="50" height="45" as="geometry" />
        </mxCell>
        <mxCell id="a8j4Nl5_mCWLMUD-GGag-28" value="192.168.28.111&lt;br&gt;Ports: 80, 2222,&lt;br&gt;8080" style="text;html=1;align=center;verticalAlign=middle;resizable=0;points=[];autosize=1;strokeColor=none;fillColor=none;" parent="1" vertex="1">
          <mxGeometry x="1190" y="260" width="100" height="50" as="geometry" />
        </mxCell>
        <mxCell id="a8j4Nl5_mCWLMUD-GGag-29" value="" style="verticalLabelPosition=bottom;html=1;verticalAlign=top;align=center;strokeColor=#b85450;fillColor=#f8cecc;shape=mxgraph.azure.computer;pointerEvents=1;" parent="1" vertex="1">
          <mxGeometry x="1325" y="200" width="50" height="45" as="geometry" />
        </mxCell>
        <mxCell id="3g2P0krdNDipfxDaKVIT-1" style="edgeStyle=orthogonalEdgeStyle;rounded=0;orthogonalLoop=1;jettySize=auto;html=1;entryX=0.556;entryY=1.004;entryDx=0;entryDy=0;entryPerimeter=0;" edge="1" parent="1" source="a8j4Nl5_mCWLMUD-GGag-30" target="3g2P0krdNDipfxDaKVIT-3">
          <mxGeometry relative="1" as="geometry">
            <Array as="points">
              <mxPoint x="1350" y="380" />
              <mxPoint x="1649" y="380" />
            </Array>
          </mxGeometry>
        </mxCell>
        <mxCell id="a8j4Nl5_mCWLMUD-GGag-30" value="Grey-Site-Donovia-6&lt;br&gt;192.168.28.120&lt;br&gt;Ports: 4242&lt;br&gt;student:YourTempPassword" style="text;html=1;align=center;verticalAlign=middle;resizable=0;points=[];autosize=1;strokeColor=none;fillColor=none;" parent="1" vertex="1">
          <mxGeometry x="1270" y="255" width="160" height="60" as="geometry" />
        </mxCell>
        <mxCell id="a8j4Nl5_mCWLMUD-GGag-34" value="192.168.150.225&lt;br&gt;Ports: None" style="text;html=1;align=center;verticalAlign=middle;resizable=0;points=[];autosize=1;strokeColor=none;fillColor=none;" parent="1" vertex="1">
          <mxGeometry x="527" y="514" width="110" height="30" as="geometry" />
        </mxCell>
        <mxCell id="a8j4Nl5_mCWLMUD-GGag-35" value="192.168.150.226&lt;br&gt;Ports: 53" style="text;html=1;align=center;verticalAlign=middle;resizable=0;points=[];autosize=1;strokeColor=none;fillColor=none;" parent="1" vertex="1">
          <mxGeometry x="636" y="514" width="110" height="30" as="geometry" />
        </mxCell>
        <mxCell id="a8j4Nl5_mCWLMUD-GGag-36" value="192.168.150.227&lt;br&gt;Ports: 53" style="text;html=1;align=center;verticalAlign=middle;resizable=0;points=[];autosize=1;strokeColor=none;fillColor=none;" parent="1" vertex="1">
          <mxGeometry x="746" y="514" width="110" height="30" as="geometry" />
        </mxCell>
        <mxCell id="a8j4Nl5_mCWLMUD-GGag-37" value="192.168.150.228&lt;br&gt;Ports: 53" style="text;html=1;align=center;verticalAlign=middle;resizable=0;points=[];autosize=1;strokeColor=none;fillColor=none;" parent="1" vertex="1">
          <mxGeometry x="880" y="515" width="110" height="30" as="geometry" />
        </mxCell>
        <mxCell id="a8j4Nl5_mCWLMUD-GGag-38" value="192.168.150.224/27" style="text;html=1;align=center;verticalAlign=middle;resizable=0;points=[];autosize=1;strokeColor=none;fillColor=none;" parent="1" vertex="1">
          <mxGeometry x="521" y="340" width="120" height="20" as="geometry" />
        </mxCell>
        <mxCell id="a8j4Nl5_mCWLMUD-GGag-42" style="edgeStyle=orthogonalEdgeStyle;rounded=0;orthogonalLoop=1;jettySize=auto;html=1;exitX=1;exitY=0.5;exitDx=0;exitDy=0;entryX=0.5;entryY=0;entryDx=0;entryDy=0;entryPerimeter=0;" parent="1" source="a8j4Nl5_mCWLMUD-GGag-39" target="a8j4Nl5_mCWLMUD-GGag-41" edge="1">
          <mxGeometry relative="1" as="geometry" />
        </mxCell>
        <mxCell id="a8j4Nl5_mCWLMUD-GGag-39" value="" style="image;html=1;image=img/lib/clip_art/computers/Network_128x128.png;fillColor=#f8cecc;strokeColor=#b85450;" parent="1" vertex="1">
          <mxGeometry x="470" y="600" width="80" height="80" as="geometry" />
        </mxCell>
        <mxCell id="a8j4Nl5_mCWLMUD-GGag-41" value="" style="verticalLabelPosition=bottom;html=1;verticalAlign=top;align=center;strokeColor=#b85450;fillColor=#f8cecc;shape=mxgraph.azure.computer;pointerEvents=1;" parent="1" vertex="1">
          <mxGeometry x="746" y="670" width="50" height="45" as="geometry" />
        </mxCell>
        <mxCell id="a8j4Nl5_mCWLMUD-GGag-43" value="&lt;div&gt;Donovian_MI_websvr (T1)&lt;/div&gt;10.100.28.40&lt;br&gt;Ports: 80, 4444 (ssh)" style="text;html=1;align=center;verticalAlign=middle;resizable=0;points=[];autosize=1;strokeColor=none;fillColor=none;" parent="1" vertex="1">
          <mxGeometry x="525" y="740" width="160" height="50" as="geometry" />
        </mxCell>
        <mxCell id="a8j4Nl5_mCWLMUD-GGag-44" value="" style="verticalLabelPosition=bottom;html=1;verticalAlign=top;align=center;strokeColor=#b85450;fillColor=#f8cecc;shape=mxgraph.azure.computer;pointerEvents=1;" parent="1" vertex="1">
          <mxGeometry x="586" y="690" width="50" height="45" as="geometry" />
        </mxCell>
        <mxCell id="a8j4Nl5_mCWLMUD-GGag-45" value="&lt;div&gt;DNLA (T1)&lt;/div&gt;10.100.28.48&lt;br&gt;Ports: 80" style="text;html=1;align=center;verticalAlign=middle;resizable=0;points=[];autosize=1;strokeColor=none;fillColor=none;" parent="1" vertex="1">
          <mxGeometry x="726" y="740" width="90" height="50" as="geometry" />
        </mxCell>
        <mxCell id="3g2P0krdNDipfxDaKVIT-6" value="" style="edgeStyle=orthogonalEdgeStyle;rounded=0;orthogonalLoop=1;jettySize=auto;html=1;dashed=1;" edge="1" parent="1" source="3g2P0krdNDipfxDaKVIT-2" target="3g2P0krdNDipfxDaKVIT-3">
          <mxGeometry relative="1" as="geometry" />
        </mxCell>
        <mxCell id="3g2P0krdNDipfxDaKVIT-2" value="" style="verticalLabelPosition=bottom;html=1;verticalAlign=top;align=center;strokeColor=#b85450;fillColor=#f8cecc;shape=mxgraph.azure.computer;pointerEvents=1;" vertex="1" parent="1">
          <mxGeometry x="1615" y="200" width="50" height="45" as="geometry" />
        </mxCell>
        <mxCell id="3g2P0krdNDipfxDaKVIT-3" value="192.168.150.245&lt;br&gt;Ports: ?&lt;br&gt;student:YourTempPassword" style="text;html=1;align=center;verticalAlign=middle;resizable=0;points=[];autosize=1;strokeColor=none;fillColor=none;" vertex="1" parent="1">
          <mxGeometry x="1560" y="265" width="160" height="50" as="geometry" />
        </mxCell>
      </root>
    </mxGraphModel>
  </diagram>
</mxfile>
